<?xml version="1.0" encoding="utf-8"?>
<svg xmlns="http://www.w3.org/2000/svg" width="100" height="26" viewBox="0 0 100 26" fill="none">
<g clip-path="url(#clip0_5643_2918)">
<path d="M35.5063 13.3993H31.7477V17.4506H35.542C36.9426 17.4506 37.7758 16.6965 37.7758 15.4338C37.7758 14.2587 37.0488 13.3993 35.5063 13.3993ZM35.0809 8.40117H31.7477V12.1543H35.0276C36.3751 12.1543 37.4033 11.5229 37.4033 10.2601C37.4033 8.99748 36.4992 8.40117 35.0809 8.40117ZM35.8608 18.766H30.1343V7.0858H35.2936C37.7401 7.0858 39.0346 8.27834 39.0346 10.0848C39.0346 11.0844 38.4495 12.1543 37.173 12.6278C38.7154 13.1013 39.4068 14.2237 39.4068 15.4865C39.4068 17.1701 38.077 18.766 35.8608 18.766Z" fill="#FFFFFF"/>
<path d="M40.8984 18.7645V7.08909H49.0509V8.49377H42.5464V12.0328H48.6433V13.4177H42.5464V17.3796H49.0509V18.7645H40.8984Z" fill="#FFFFFF"/>
<path d="M55.6658 8.48895V18.766H54.0524V8.48895H50.0454V7.0858H59.6552V8.48895H55.6658Z" fill="#FFFFFF"/>
<path d="M70.4616 18.766V12.2946L67.802 16.4511H66.1886L63.5467 12.2946V18.766H60.6392V7.0858H63.5114L67.0042 12.6979L70.4972 7.0858H73.3695V18.766H70.4616Z" fill="#FFFFFF"/>
<path d="M97.0922 18.766V12.2946L94.4325 16.4511H92.8191L90.1772 12.2946V18.766H87.27V7.0858H90.1423L93.6351 12.6979L97.1279 7.0858H100V18.766H97.0922Z" fill="#FFFFFF"/>
<path d="M81.7727 18.766C77.476 18.766 75.001 16.3176 75.001 12.9173C75.001 9.51706 77.3898 7.0858 81.6525 7.0858C82.581 7.0858 83.6809 7.18777 84.9188 7.45991L84.5574 9.85703C83.6638 9.70411 82.8897 9.60215 81.8759 9.60215C79.1091 9.60215 77.9402 10.8942 77.9402 12.9173C77.9402 14.9405 79.2464 16.2157 81.4462 16.2157C81.8418 16.2157 82.2366 16.2157 82.7183 16.1477V12.7983H85.4858V18.3239C84.386 18.6129 82.8897 18.766 81.7727 18.766Z" fill="#FFFFFF"/>
<path d="M1.23584 10.7378C1.23584 12.9389 1.60031 14.9881 2.75126 16.6958V15.1968C2.75126 13.3563 4.26668 12.0661 5.76293 11.2312C4.17078 11.8004 2.46354 11.4399 1.23584 10.7378Z" fill="#FFFFFF"/>
<path d="M0.948242 8.9732C1.37028 9.25778 1.94576 9.39066 2.59795 9.33373C3.09671 9.69419 3.82565 8.68856 4.53541 8.68856C5.60964 8.55575 6.9716 8.40398 7.70054 9.33373L7.33607 8.63163C6.33859 8.55574 5.47536 8.21417 4.68888 7.77775C3.09671 7.05677 2.31023 9.31471 0.948242 8.9732ZM2.52123 9.18189H2.02247C1.94576 8.89732 2.73224 8.40398 2.96242 8.76444L2.52123 9.18189Z" fill="#FFFFFF"/>
<path d="M0 5.34914C0.498757 5.48203 1.00572 5.63379 1.52367 5.63379C2.59787 5.21633 2.88562 4.36254 2.46361 3.22402C1.81138 2.29427 0.920766 1.80093 0 1.59223V5.34914Z" fill="#FFFFFF"/>
<path d="M7.18229 25.5C7.31658 25.3672 7.54677 25.1395 7.68105 24.9308C10.5584 21.2308 4.95711 19.1056 5.0914 15.5574C5.22565 14.1343 6.03135 13.0717 6.95211 11.9333L6.87539 11.8573C6.01217 12.7112 5.6477 13.2804 5.07222 14.1343C3.34576 17.6066 5.78195 22.521 3.26904 25.5H7.18229Z" fill="#FFFFFF"/>
<path d="M18.8263 13.0148C18.8263 18.1189 16.3901 22.5969 12.592 25.5H25.2141V0.499771H12.5728C16.3709 3.34595 18.8263 7.89167 18.8263 13.0148Z" fill="#FFFFFF"/>
<path d="M0 25.5H2.15668L2.65543 25.0067C5.59035 21.041 2.14846 18.2708 0 15.1399V25.5Z" fill="#FFFFFF"/>
<path d="M5.97403 0.499799H0V0.928075C0.575475 1.00396 1.23591 1.21272 1.73467 1.42142C2.96233 2.12352 3.8831 3.26197 3.74885 4.68506L6.39604 4.40041C6.76051 3.54662 6.8948 2.19941 6.53032 1.4973C6.39604 1.07992 6.18503 0.727518 5.97403 0.499799Z" fill="#FFFFFF"/>
<path d="M7.18262 0.499715C7.75813 1.27763 7.75813 2.29415 7.83484 3.07214C8.90906 2.29415 10.2135 1.80081 11.5755 2.14239C10.6355 1.44028 10.0024 0.936126 8.8515 0.499715H7.18262Z" fill="#FFFFFF"/>
<path d="M14.7981 18.5553C15.0859 16.2025 14.8748 13.7359 13.1485 12.104C12.784 12.0281 12.2852 12.2368 11.9974 11.8953C11.211 12.5973 10.1943 12.882 9.48453 13.6789C8.69809 13.8876 7.91157 13.3943 7.10592 13.2615C7.10592 13.1287 7.10592 13.0527 7.10592 12.9768C6.03169 13.6789 6.3194 15.102 6.1084 16.1646C6.39615 17.3789 7.75814 17.8722 8.6213 18.5744C9.98328 18.783 11.211 18.2138 12.3619 17.7964C12.5729 18.0051 12.8607 18.1569 12.7264 18.4415C11.7865 19.7128 10.4245 20.282 8.85151 20.1492C9.79146 21.9328 9.13929 23.9441 8.14178 25.5H9.08173C11.9207 24.1908 14.5872 22.2364 14.7981 18.5553ZM9.63804 18.3277C9.27355 18.043 9.42698 17.5497 9.42698 17.1892L9.63804 16.9805C10.0024 18.1189 10.9232 16.7718 11.6522 16.9046C12.0167 16.7718 11.8632 16.2594 12.2277 16.3354C12.784 18.1189 10.6355 17.7585 9.63804 18.3277ZM12.4962 13.2235L12.2852 13.7928L11.9974 13.0907C11.3453 13.2235 10.7123 13.4512 10.3478 14.1532C10.2711 14.362 10.4245 14.7225 10.2135 14.8554C9.79146 14.7795 10.0024 14.0774 10.0024 13.641C10.5012 13.1476 11.8632 12.0851 12.3811 12.5025C12.4962 12.5784 12.5729 12.9389 12.4962 13.2235Z" fill="#FFFFFF"/>
<path d="M16.8888 8.97326C16.1023 6.27884 13.6661 2.65475 10.4243 2.86344C9.19661 2.9394 7.98805 3.85012 7.54688 4.57118C8.41009 5.06452 9.35003 5.7855 10.1366 6.48761C10.0598 6.77218 10.2708 7.13271 9.9255 7.26552C9.50354 6.90499 9.13905 6.0512 8.56359 6.33577C8.98555 7.26552 10.1366 7.32245 10.9997 7.55017C11.3642 7.9107 11.2108 8.47992 11.9397 8.19527C12.3041 8.27115 12.4384 8.68861 12.5152 8.97326C11.9397 10.0358 10.3667 9.33379 9.50354 9.54248C10.2133 9.82713 11.019 9.90301 11.652 10.3205C12.3041 10.7379 12.5152 9.75117 12.8029 9.39072C13.9539 9.67529 13.3016 10.8897 13.8004 11.5158C16.2366 14.0015 15.7378 18.4036 14.5101 21.2498C17.8863 18.3277 17.5986 11.6676 16.8888 8.97326Z" fill="#FFFFFF"/>
</g>
<defs>
<clipPath id="clip0_5643_2918">
<rect width="100" height="25" fill="white" transform="translate(0 0.5)"/>
</clipPath>
</defs>
</svg>